<?xml version="1.0" standalone="no"?>
<!DOCTYPE svg PUBLIC "-//W3C//DTD SVG 20010904//EN"
 "http://www.w3.org/TR/2001/REC-SVG-20010904/DTD/svg10.dtd">
<svg version="1.0" xmlns="http://www.w3.org/2000/svg"
 width="700.000000pt" height="700.000000pt" viewBox="0 0 700.000000 700.000000"
 preserveAspectRatio="xMidYMid meet">
<metadata>
Created by potrace 1.14, written by Peter Selinger 2001-2017
</metadata>
<g transform="translate(0.000000,700.000000) scale(0.100000,-0.100000)"
fill="#000000" stroke="none">
<path d="M3897 6784 c-1 -1 -56 -5 -122 -8 -66 -3 -131 -8 -145 -10 -14 -3
-56 -7 -95 -11 -130 -12 -374 -57 -525 -97 -245 -64 -408 -126 -635 -238 -167
-82 -442 -257 -505 -320 -3 -3 -32 -27 -65 -55 -33 -27 -105 -95 -161 -150
-404 -402 -665 -905 -789 -1520 -15 -71 -29 -146 -31 -165 -2 -19 -7 -46 -10
-60 -2 -14 -7 -51 -9 -83 -3 -32 -7 -70 -10 -85 -27 -148 -27 -770 1 -1012 20
-183 23 -205 46 -340 105 -633 364 -1185 744 -1589 123 -130 371 -336 463
-383 14 -7 41 -23 59 -35 62 -41 266 -140 382 -186 231 -91 517 -162 775 -192
28 -3 64 -8 80 -10 183 -24 845 -25 1085 0 19 2 71 6 115 10 44 3 91 8 105 10
14 2 52 6 85 10 33 3 71 8 85 10 14 2 48 6 75 10 65 8 211 32 300 50 39 8 86
17 105 20 19 3 43 8 52 11 17 5 45 12 88 20 88 18 393 101 525 145 l90 29 0
1605 0 1605 -1177 0 -1178 0 1 -450 0 -451 537 1 c295 1 594 1 663 0 l127 0 0
-820 c0 -451 -4 -822 -8 -825 -12 -8 -299 -63 -390 -75 -47 -6 -96 -13 -110
-15 -137 -22 -377 -37 -570 -37 -416 1 -745 69 -1035 214 -460 230 -759 611
-925 1177 -25 86 -22 72 -54 226 -13 66 -29 163 -36 215 -6 52 -13 109 -15
125 -31 229 -20 768 20 976 2 9 7 39 11 66 5 26 9 50 9 53 1 3 5 23 9 45 64
320 212 653 406 910 137 182 384 402 555 494 22 12 54 30 70 39 47 29 218 101
312 133 86 29 270 73 353 84 25 3 52 8 60 10 73 19 524 27 690 12 385 -35 773
-137 1177 -310 71 -31 82 -33 86 -19 3 9 82 199 177 422 94 223 174 411 177
418 6 14 -46 39 -240 111 -256 95 -571 178 -862 225 -25 4 -141 20 -305 41
-107 13 -681 30 -693 19z"/>
</g>
</svg>
